<?xml version="1.0" encoding="UTF-8" standalone="no"?>
<!-- Created with Inkscape (http://www.inkscape.org/) -->

<svg
   xmlns:osb="http://www.openswatchbook.org/uri/2009/osb"
   xmlns:dc="http://purl.org/dc/elements/1.1/"
   xmlns:cc="http://creativecommons.org/ns#"
   xmlns:rdf="http://www.w3.org/1999/02/22-rdf-syntax-ns#"
   xmlns:svg="http://www.w3.org/2000/svg"
   xmlns="http://www.w3.org/2000/svg"
   xmlns:xlink="http://www.w3.org/1999/xlink"
   xmlns:sodipodi="http://sodipodi.sourceforge.net/DTD/sodipodi-0.dtd"
   xmlns:inkscape="http://www.inkscape.org/namespaces/inkscape"
   width="385.44986mm"
   height="45.35714mm"
   viewBox="0 0 385.44986 45.357139"
   version="1.1"
   id="svg844"
   inkscape:version="0.92.4 (5da689c313, 2019-01-14)"
   sodipodi:docname="hero__after2.svg">
  <defs
     id="defs838">
    <linearGradient
       inkscape:collect="always"
       id="linearGradient2425">
      <stop
         style="stop-color:#89bfe1;stop-opacity:1;"
         offset="0"
         id="stop2421" />
      <stop
         style="stop-color:#89bfe1;stop-opacity:0;"
         offset="1"
         id="stop2423" />
    </linearGradient>
    <linearGradient
       id="linearGradient2381"
       osb:paint="solid">
      <stop
         style="stop-color:#89bfe1;stop-opacity:1;"
         offset="0"
         id="stop2379" />
    </linearGradient>
    <linearGradient
       inkscape:collect="always"
       xlink:href="#linearGradient2425"
       id="linearGradient2435"
       x1="0"
       y1="22.678566"
       x2="385.44986"
       y2="22.678566"
       gradientUnits="userSpaceOnUse" />
    <linearGradient
       inkscape:collect="always"
       xlink:href="#linearGradient2425"
       id="linearGradient2439"
       gradientUnits="userSpaceOnUse"
       x1="0"
       y1="22.678566"
       x2="385.44986"
       y2="22.678566"
       gradientTransform="matrix(-1,0,0,1,385.44987,4e-6)" />
  </defs>
  <sodipodi:namedview
     id="base"
     pagecolor="#ffffff"
     bordercolor="#666666"
     borderopacity="1.0"
     inkscape:pageopacity="0.0"
     inkscape:pageshadow="2"
     inkscape:zoom="0.7"
     inkscape:cx="582.64239"
     inkscape:cy="82.123017"
     inkscape:document-units="mm"
     inkscape:current-layer="layer1"
     showgrid="false"
     inkscape:window-width="1822"
     inkscape:window-height="1051"
     inkscape:window-x="2489"
     inkscape:window-y="-9"
     inkscape:window-maximized="1" />
  <metadata
     id="metadata841">
    <rdf:RDF>
      <cc:Work
         rdf:about="">
        <dc:format>image/svg+xml</dc:format>
        <dc:type
           rdf:resource="http://purl.org/dc/dcmitype/StillImage" />
        <dc:title></dc:title>
      </cc:Work>
    </rdf:RDF>
  </metadata>
  <path
     inkscape:connector-curvature="0"
     style="fill:url(#linearGradient2435);fill-opacity:1;stroke-width:0.205319"
     id="path827"
     d="M 385.44987,0 V 45.35714 H 374.74291 321.20828 256.96666 192.72494 128.4833 64.241643 10.706941 0 v 0 l 10.706941,-5.87438 c 10.706924,-5.93737 -7.1886846,-19.48151 14.22518,-22.04861 21.413881,-2.47258 65.506342,8.29974 86.920229,9.19742 21.41388,0.8347 59.45873,-6.47284 80.87259,-11.51253 21.41388,-5.03967 49.25332,6.92958 70.66733,10.28411 21.4136,3.41753 48.11943,-13.65438 69.53327,-13.60714 35.77694,-9.87468 29.59852,4.551414 40.30547,-1.385926 z"
     sodipodi:nodetypes="ccccccccccccccscccc" />
  <path
     sodipodi:nodetypes="ccccccccccccccscccc"
     d="m 8.4e-6,0 v 45.35714 h 10.7069596 53.53463 64.241622 64.24172 64.24164 64.24165 53.5347 10.70694 v 0 l -10.70694,-5.87438 c -10.70692,-5.93737 0.007,-9.654131 -21.40673,-12.221231 -21.41388,-2.47258 -58.32479,-1.527639 -79.73867,-0.629959 -21.41388,0.8347 -59.45873,-6.47284 -80.87259,-11.51253 -21.41388,-5.03967 -49.25332,6.929577 -70.66733,10.284107 -21.4136,3.41753 -48.119432,-13.654379 -69.533272,-13.607139 -35.77694,-9.87468 -31.11042,0.01574 -41.81737,-5.921638 z"
     id="path2437"
     style="fill:url(#linearGradient2439);fill-opacity:1;stroke-width:0.205319"
     inkscape:connector-curvature="0" />
  <g
     inkscape:label="Layer 1"
     inkscape:groupmode="layer"
     id="layer1"
     transform="translate(43.216694,-125.86865)">
    <path
       d="m -43.216691,134.18413 v 37.04166 h 10.70695 c 10.70697,0 32.12080029,0 53.53465,0 21.41383,0 42.827995,0 64.241605,0 21.413996,0 42.827836,0 64.241716,0 21.41387,0 42.82776,0 64.24164,0 21.41389,0 42.82777,0 64.24165,0 21.41387,0 42.82778,0 53.5347,0 h 10.70695 v 0 l -10.70695,-4.79741 c -10.70692,-4.84885 -32.12083,-14.3665 -53.5347,-16.46296 -21.41388,-2.01928 -42.82776,3.38263 -64.24165,4.11574 -21.41388,0.68167 -42.82777,-3.43407 -64.24164,-7.54982 -21.41388,-4.11573 -42.82772,-8.23147 -64.241716,-5.49193 -21.41361,2.79098 -42.827775,12.30864 -64.241605,12.34722 -21.41384971,-0.0386 -42.82768,-9.55624 -53.53465,-14.4051 z"
       id="path827-0"
       style="fill:#184561;fill-opacity:1;stroke-width:0.185546"
       inkscape:connector-curvature="0" />
    <g
       transform="translate(-23.81945,82.306939)"
       id="layer1-4"
       inkscape:label="Layer 1" />
  </g>
</svg>
